<svg width="25" height="20" viewBox="0 0 25 20" fill="none" xmlns="http://www.w3.org/2000/svg">
<g clip-path="url(#clip0_2551_367)">
<path d="M1.875 0C0.839844 0 0 0.839844 0 1.875V14.375C0 15.4102 0.839844 16.25 1.875 16.25H2.5C2.5 18.3203 4.17969 20 6.25 20C8.32031 20 10 18.3203 10 16.25H15C15 18.3203 16.6797 20 18.75 20C20.8203 20 22.5 18.3203 22.5 16.25H23.75C24.4414 16.25 25 15.6914 25 15C25 14.3086 24.4414 13.75 23.75 13.75V11.25V10V9.26953C23.75 8.60547 23.4883 7.96875 23.0195 7.5L20 4.48047C19.5312 4.01172 18.8945 3.75 18.2305 3.75H16.25V1.875C16.25 0.839844 15.4102 0 14.375 0H1.875ZM16.25 6.25H18.2305L21.25 9.26953V10H16.25V6.25ZM4.375 16.25C4.375 15.7527 4.57254 15.2758 4.92417 14.9242C5.27581 14.5725 5.75272 14.375 6.25 14.375C6.74728 14.375 7.22419 14.5725 7.57583 14.9242C7.92746 15.2758 8.125 15.7527 8.125 16.25C8.125 16.7473 7.92746 17.2242 7.57583 17.5758C7.22419 17.9275 6.74728 18.125 6.25 18.125C5.75272 18.125 5.27581 17.9275 4.92417 17.5758C4.57254 17.2242 4.375 16.7473 4.375 16.25ZM18.75 14.375C19.2473 14.375 19.7242 14.5725 20.0758 14.9242C20.4275 15.2758 20.625 15.7527 20.625 16.25C20.625 16.7473 20.4275 17.2242 20.0758 17.5758C19.7242 17.9275 19.2473 18.125 18.75 18.125C18.2527 18.125 17.7758 17.9275 17.4242 17.5758C17.0725 17.2242 16.875 16.7473 16.875 16.25C16.875 15.7527 17.0725 15.2758 17.4242 14.9242C17.7758 14.5725 18.2527 14.375 18.75 14.375Z" fill="black"/>
</g>
<defs>
<clipPath id="clip0_2551_367">
<path d="M0 0H25V20H0V0Z" fill="white"/>
</clipPath>
</defs>
</svg>
