<svg width="23" height="20" viewBox="0 0 23 20" fill="none" xmlns="http://www.w3.org/2000/svg">
<g clip-path="url(#clip0_2551_347)">
<path d="M2.5 1.25C1.12109 1.25 0 2.37109 0 3.75V5H22.5V3.75C22.5 2.37109 21.3789 1.25 20 1.25H2.5ZM22.5 8.75H0V16.25C0 17.6289 1.12109 18.75 2.5 18.75H20C21.3789 18.75 22.5 17.6289 22.5 16.25V8.75ZM4.375 13.75H6.875C7.21875 13.75 7.5 14.0312 7.5 14.375C7.5 14.7188 7.21875 15 6.875 15H4.375C4.03125 15 3.75 14.7188 3.75 14.375C3.75 14.0312 4.03125 13.75 4.375 13.75ZM8.75 14.375C8.75 14.0312 9.03125 13.75 9.375 13.75H14.375C14.7188 13.75 15 14.0312 15 14.375C15 14.7188 14.7188 15 14.375 15H9.375C9.03125 15 8.75 14.7188 8.75 14.375Z" fill="black"/>
</g>
<defs>
<clipPath id="clip0_2551_347">
<path d="M0 0H22.5V20H0V0Z" fill="white"/>
</clipPath>
</defs>
</svg>
