<svg width="20" height="20" viewBox="0 0 20 20" fill="none" xmlns="http://www.w3.org/2000/svg">
<g clip-path="url(#clip0_846_546)">
<path d="M12.0234 19.2811C11.5547 19.0858 11.25 18.6327 11.25 18.1249V14.9999H6.875C3.07812 14.9999 0 11.9218 0 8.12489C0 3.69911 3.18359 1.72255 3.91406 1.32411C4.01172 1.26942 4.12109 1.24989 4.23047 1.24989C4.65625 1.24989 5 1.59755 5 2.01942C5 2.31239 4.83203 2.58192 4.61719 2.78114C4.25 3.12489 3.75 3.81239 3.75 4.99599C3.75 7.0663 5.42969 8.74599 7.5 8.74599H11.25V5.62099C11.25 5.11708 11.5547 4.66005 12.0234 4.46474C12.4922 4.26942 13.0273 4.3788 13.3867 4.73427L19.6367 10.9843C20.125 11.4725 20.125 12.2655 19.6367 12.7538L13.3867 19.0038C13.0273 19.3632 12.4922 19.4686 12.0234 19.2733V19.2811Z" fill="#838383"/>
</g>
<defs>
<clipPath id="clip0_846_546">
<rect width="20" height="20" fill="white" transform="matrix(-1 0 0 -1 20 20)"/>
</clipPath>
</defs>
</svg>
